<svg width="20" height="20" viewBox="0 0 20 20" fill="none" xmlns="http://www.w3.org/2000/svg">
<path d="M8.33333 7.0852C8.48016 6.6678 8.76998 6.31584 9.15144 6.09165C9.53291 5.86745 9.98141 5.7855 10.4175 5.86031C10.8536 5.93511 11.2492 6.16184 11.5341 6.50034C11.8191 6.83884 11.975 7.26726 11.9744 7.70973C11.9744 8.9588 10.1008 9.58333 10.1008 9.58333M10.1249 12.0833H10.1333M8.25 16L9.46667 17.6222C9.6476 17.8635 9.73807 17.9841 9.84897 18.0272C9.94611 18.065 10.0539 18.065 10.151 18.0272C10.2619 17.9841 10.3524 17.8635 10.5333 17.6222L11.75 16C11.9943 15.6743 12.1164 15.5114 12.2654 15.3871C12.4641 15.2213 12.6986 15.104 12.9504 15.0446C13.1393 15 13.3429 15 13.75 15C14.9149 15 15.4973 15 15.9567 14.8097C16.5693 14.556 17.056 14.0693 17.3097 13.4567C17.5 12.9973 17.5 12.4149 17.5 11.25V6.5C17.5 5.09987 17.5 4.3998 17.2275 3.86502C16.9878 3.39462 16.6054 3.01217 16.135 2.77248C15.6002 2.5 14.9001 2.5 13.5 2.5H6.5C5.09987 2.5 4.3998 2.5 3.86502 2.77248C3.39462 3.01217 3.01217 3.39462 2.77248 3.86502C2.5 4.3998 2.5 5.09987 2.5 6.5V11.25C2.5 12.4149 2.5 12.9973 2.6903 13.4567C2.94404 14.0693 3.43072 14.556 4.04329 14.8097C4.50272 15 5.08515 15 6.25 15C6.65715 15 6.86072 15 7.04959 15.0446C7.30141 15.104 7.53593 15.2213 7.73458 15.3871C7.88357 15.5114 8.00571 15.6743 8.25 16Z" stroke="#667085" stroke-width="1.33333" stroke-linecap="round" stroke-linejoin="round"/>
</svg>
